<svg xmlns="http://www.w3.org/2000/svg" width="1200" height="300" fill="none" font-family="'Segoe UI',system-ui,-apple-system,Roboto,Helvetica,Arial,sans-serif" viewBox="0 0 1200 300"><defs><linearGradient id="a" x1="0" x2="1200" y1="0" y2="300" gradientUnits="userSpaceOnUse"><stop offset="0" stop-color="#0b1020"/><stop offset="1" stop-color="#0a0f1f"/></linearGradient></defs><rect width="1200" height="300" fill="url(#a)" rx="20"/><rect width="1198" height="298" x="1" y="1" stroke="#fff" stroke-opacity=".08" rx="19"/><text x="40" y="56" fill="#e5e7eb" font-size="26" font-weight="800">The stack</text><text x="40" y="84" fill="#8b95b5" font-size="15">Best-in-class building blocks, glued together with n8n — swap any layer.</text><g font-size="18" font-weight="700"><g transform="translate(40 120)"><rect width="176" height="92" fill="#11173a" stroke="#ea4b71" stroke-opacity=".55" rx="14"/><text x="88" y="44" font-size="30" text-anchor="middle">⚙️</text><text x="88" y="74" fill="#fbcfe0" text-anchor="middle">n8n</text></g><g transform="translate(238 120)"><rect width="176" height="92" fill="#11173a" stroke="#10a37f" stroke-opacity=".55" rx="14"/><text x="88" y="44" font-size="30" text-anchor="middle">🧠</text><text x="88" y="74" fill="#a7f3d0" text-anchor="middle">OpenAI</text></g><g transform="translate(436 120)"><rect width="176" height="92" fill="#11173a" stroke="#d97757" stroke-opacity=".55" rx="14"/><text x="88" y="44" font-size="30" text-anchor="middle">✶</text><text x="88" y="74" fill="#fed7aa" text-anchor="middle">Claude</text></g><g transform="translate(634 120)"><rect width="176" height="92" fill="#11173a" stroke="#6366f1" stroke-opacity=".55" rx="14"/><text x="88" y="44" font-size="30" text-anchor="middle">🚀</text><text x="88" y="74" fill="#c7d2fe" text-anchor="middle">Apollo.io</text></g><g transform="translate(832 120)"><rect width="176" height="92" fill="#11173a" stroke="#fcb400" stroke-opacity=".55" rx="14"/><text x="88" y="44" font-size="30" text-anchor="middle">🗂️</text><text x="88" y="74" fill="#fde68a" text-anchor="middle">Airtable</text></g><g transform="translate(1030 120)"><rect width="130" height="92" fill="#11173a" stroke="#ea4335" stroke-opacity=".55" rx="14"/><text x="65" y="44" font-size="30" text-anchor="middle">✉️</text><text x="65" y="74" fill="#fecaca" text-anchor="middle">Gmail</text></g></g><text x="40" y="262" fill="#6f79a0" font-size="13.5">Alt swaps documented: HubSpot ⇄ Airtable · Microsoft Graph ⇄ Gmail · Clay enrichment hook · self-hosted, your keys, your data.</text></svg>